<?xml version="1.0"?>
<svg xmlns="http://www.w3.org/2000/svg" xmlns:xlink="http://www.w3.org/1999/xlink" version="1.1" id="Capa_1" x="0px" y="0px" viewBox="0 0 612 612" style="enable-background:new 0 0 612 612;" xml:space="preserve" width="512px" height="512px"><g><g>
	<g>
		<path d="M306,612c-28.152,0-55.284-3.672-81.396-11.016c-26.112-7.347-50.49-17.646-73.134-30.906    s-43.248-29.172-61.812-47.736c-18.564-18.562-34.476-39.168-47.736-61.812c-13.26-22.646-23.562-47.022-30.906-73.135    C3.672,361.284,0,334.152,0,306s3.672-55.284,11.016-81.396s17.646-50.49,30.906-73.134s29.172-43.248,47.736-61.812    s39.168-34.476,61.812-47.736s47.022-23.562,73.134-30.906S277.848,0,306,0c42.024,0,81.702,8.058,119.034,24.174    s69.768,37.944,97.308,65.484s49.368,59.976,65.484,97.308S612,263.976,612,306c0,28.152-3.672,55.284-11.016,81.396    c-7.347,26.109-17.646,50.487-30.906,73.134c-13.26,22.644-29.172,43.248-47.736,61.812    c-18.562,18.564-39.168,34.479-61.812,47.736c-22.646,13.26-47.022,23.562-73.136,30.906C361.284,608.328,334.152,612,306,612z     M218.484,491.436c16.728-2.445,32.844-11.424,48.348-26.928l15.912-15.912l30.906-30.903l38.25-38.25l37.941-37.944    c0,0,10.2-10.098,30.603-30.294c20.397-20.196,25.704-25.398,15.911-15.606c18.358-19.176,29.986-37.944,34.885-56.304    c1.632-5.304,2.649-11.322,3.06-18.054c0.408-6.732-0.204-13.872-1.836-21.42s-4.69-15.402-9.18-23.562    c-4.488-8.16-11.019-16.524-19.584-25.092c-22.032-22.032-45.595-32.436-70.688-31.212c-25.092,1.224-49.878,13.872-74.356,37.944    L142.596,314.57c-3.264,3.264-4.896,7.443-4.896,12.546c0,5.1,1.632,9.282,4.896,12.546c3.672,3.672,8.058,5.508,13.158,5.508    s9.282-1.836,12.546-5.508L324.36,183.6c11.424-11.424,21.826-19.074,31.212-22.95c9.384-3.876,17.952-5.406,25.704-4.59    s14.688,3.264,20.808,7.344c6.12,4.08,11.424,8.364,15.912,12.852c17.544,17.544,23.664,35.496,18.36,53.856    c-2.856,11.832-11.427,25.092-25.704,39.78l-15.606,15.606l-30.294,30.294c0,0-12.75,12.648-38.25,37.944    s-38.352,38.046-38.556,38.25L257.04,422.89l-15.912,15.912c-10.2,10.2-19.38,15.912-27.54,17.138    c-1.632,0-4.59-0.308-8.874-0.918c-4.284-0.611-9.69-3.979-16.218-10.1c-9.792-9.792-14.076-19.38-12.852-28.764    c0.408-5.306,2.142-10.1,5.202-14.382c3.06-4.284,6.222-8.061,9.486-11.322L332.928,247.86c4.896-4.896,9.078-8.466,12.546-10.71    c3.471-2.244,6.225-3.672,8.265-4.284s3.567-0.612,4.59,0c1.02,0.612,1.731,1.122,2.142,1.53c0.408,0.816,0.918,1.734,1.53,2.754    s0.612,2.55,0,4.59s-2.04,4.692-4.284,7.956s-5.812,7.344-10.71,12.24l-130.97,130.968l25.092,25.704l131.58-130.968    c9.384-9.384,16.116-18.054,20.196-26.01s6.222-15.198,6.426-21.726s-1.021-12.342-3.672-17.442    c-2.652-5.1-5.814-9.486-9.486-13.158c-3.264-2.856-7.242-5.712-11.934-8.568s-10.404-4.386-17.139-4.59    c-6.729-0.204-14.277,1.632-22.644,5.508c-8.366,3.876-17.442,10.71-27.234,20.502L164.628,364.752    c-14.688,14.688-23.052,30.6-25.092,47.736c-0.816,6.936,0.102,15.504,2.754,25.704c2.652,10.197,9.69,21.012,21.114,32.436    c8.16,8.568,16.32,14.28,24.48,17.136c8.16,2.856,15.708,4.284,22.644,4.284C214.2,492.048,216.852,491.844,218.484,491.436z" data-original="#010002" class="active-path" data-old_color="#2a1745" fill="#2a1745"/>
	</g>
</g></g> </svg>
