<?xml version="1.0" encoding="utf-8"?>
<!-- Generator: Adobe Illustrator 16.0.0, SVG Export Plug-In . SVG Version: 6.00 Build 0)  -->
<!DOCTYPE svg PUBLIC "-//W3C//DTD SVG 1.1//EN" "http://www.w3.org/Graphics/SVG/1.1/DTD/svg11.dtd">
<svg version="1.1" id="图层_1" xmlns="http://www.w3.org/2000/svg" xmlns:xlink="http://www.w3.org/1999/xlink" x="0px" y="0px"
	 width="1021px" height="699px" viewBox="0 0 1021 699" enable-background="new 0 0 1021 699" xml:space="preserve">
<linearGradient id="SVGID_1_" gradientUnits="userSpaceOnUse" x1="111.6719" y1="1849.4463" x2="110.8336" y2="1849.1643" gradientTransform="matrix(1076 0 0 -776.2042 -119231 1435853.875)">
	<stop  offset="0" style="stop-color:#E5EFFF"/>
	<stop  offset="1" style="stop-color:#CEDAFE"/>
</linearGradient>
<path fill="url(#SVGID_1_)" d="M945.27,326c-41.932-26.334-72.986-100.057-64.73-148.879C887.73,134.576,892.726,58.141,863.797,0
	H551.92c-15.51,15.736-29.638,32.682-42.368,49.622c-37.031,49.272-103.646,53.617-157.263,65.106
	c-65.875,14.116-132.981,35.439-193.933,66.674C32.828,245.742-4.666,338.231,0.452,456.571C2,492.324,7.057,548.641,67.455,614.539
	c81.516,88.943,199.969,100.853,342.543,60.006c32.637-9.352,63.481-24.017,95.585-35.053
	c33.353-11.47,68.053-19.007,103.159-22.402c81.886-7.917,172.816,56.044,253.061,74.188c69.803,15.784,123.181,3.637,159.197-24.8
	V393.314C1001.224,368.338,976.032,345.319,945.27,326z"/>
</svg>
