<?xml version="1.0" encoding="UTF-8"?>
<svg width="881px" height="501px" viewBox="0 0 881 501" version="1.1" xmlns="http://www.w3.org/2000/svg" xmlns:xlink="http://www.w3.org/1999/xlink">
    <!-- Generator: Sketch 43.1 (39012) - http://www.bohemiancoding.com/sketch -->
    <title>Group 6</title>
    <desc>Created with Sketch.</desc>
    <defs>
        <linearGradient x1="0%" y1="50%" x2="100%" y2="50%" id="linearGradient-1">
            <stop stop-color="#A6CAF2" offset="0%"></stop>
            <stop stop-color="#918EF2" offset="100%"></stop>
        </linearGradient>
        <linearGradient x1="50%" y1="0%" x2="50%" y2="100%" id="linearGradient-2">
            <stop stop-color="#A5C9F2" offset="0%"></stop>
            <stop stop-color="#928FF2" offset="100%"></stop>
        </linearGradient>
    </defs>
    <g id="Page-1" stroke="none" stroke-width="1" fill="none" fill-rule="evenodd">
        <g id="final" transform="translate(-839.000000, -136.000000)">
            <g id="Group-6" transform="translate(839.000000, 136.000000)">
                <rect id="Rectangle-path" fill="url(#linearGradient-1)" fill-rule="nonzero" x="682" y="306" width="119" height="89"></rect>
                <rect id="Rectangle-path" fill="#FFFFFF" fill-rule="nonzero" x="686" y="309" width="111" height="83"></rect>
                <rect id="Rectangle-path" fill="#E1ECF8" fill-rule="nonzero" x="701" y="314" width="82" height="6"></rect>
                <g id="Group" transform="translate(693.000000, 327.000000)" fill-rule="nonzero">
                    <rect id="Rectangle-path" fill="#E1ECF8" x="4.51664957" y="38.5130648" width="6.38754058" height="15.8245867"></rect>
                    <rect id="Rectangle-path" fill="#E1ECF8" x="18.9104493" y="24.6224606" width="6.38754058" height="29.7131867"></rect>
                    <rect id="Rectangle-path" fill="#E1ECF8" x="33.304249" y="27.6947873" width="6.38754058" height="26.64086"></rect>
                    <rect id="Rectangle-path" fill="#E1ECF8" x="47.6980487" y="12.6518102" width="6.38754058" height="41.6838371"></rect>
                    <polygon id="Shape" fill="#CFD2E2" points="78.9066174 58.6926194 0.298232464 58.6926194 0.298232464 1.34853397 1.1715687 1.34853397 1.1715687 57.8308448 78.9066174 57.8308448"></polygon>
                    <polygon id="Shape" fill="#CFD2E2" points="7.34382174 29.9434178 6.76295159 29.3041013 21.7152803 16.0548178 35.5688301 19.0209257 50.5658412 2.54499778 51.2157658 3.12018222 35.8775443 19.9688778 21.9671261 16.9867368"></polygon>
                    <polygon id="Shape" fill="#CFD2E2" points="52.3917232 5.55519651 48.16112 1.55095079 53.620487 0.109983492"></polygon>
                    <g transform="translate(63.288116, 2.004127)" id="Rectangle-path" fill="#EFEFEF">
                        <rect x="4.16561072" y="0.252276508" width="29.2059884" height="1.12631937"></rect>
                        <rect x="0.22138058" y="2.98590571" width="33.1481875" height="1.12832349"></rect>
                        <rect x="0.22138058" y="5.71953492" width="33.1481875" height="1.12832349"></rect>
                        <rect x="0.22138058" y="8.45516825" width="33.1481875" height="1.12832349"></rect>
                        <rect x="0.22138058" y="11.1887975" width="33.1481875" height="1.13032762"></rect>
                        <rect x="0.22138058" y="13.9244308" width="33.1481875" height="1.12631937"></rect>
                        <rect x="0.22138058" y="16.6560559" width="33.1481875" height="1.13032762"></rect>
                        <rect x="0.22138058" y="19.3936933" width="33.1481875" height="1.12631937"></rect>
                        <rect x="0.22138058" y="22.1273225" width="33.1481875" height="1.12832349"></rect>
                        <rect x="0.22138058" y="24.8609517" width="33.1481875" height="1.12832349"></rect>
                        <rect x="0.22138058" y="27.594581" width="33.1481875" height="1.12832349"></rect>
                        <rect x="0.22138058" y="30.3302143" width="33.1481875" height="1.12832349"></rect>
                        <rect x="0.22138058" y="33.0658476" width="33.1481875" height="1.12631937"></rect>
                        <rect x="0.22138058" y="35.7974727" width="33.1481875" height="1.13032762"></rect>
                        <rect x="0.22138058" y="38.533106" width="33.1481875" height="1.12631937"></rect>
                        <rect x="0.22138058" y="41.2687394" width="33.1481875" height="1.12832349"></rect>
                        <rect x="0.22138058" y="44.0023686" width="33.1481875" height="1.12832349"></rect>
                        <rect x="0.22138058" y="46.7359978" width="33.1481875" height="1.12832349"></rect>
                        <rect x="18.7686049" y="49.469627" width="14.6009632" height="1.12832349"></rect>
                    </g>
                </g>
                <g id="Group">
                    <g>
                        <g transform="translate(66.000000, 27.000000)">
                            <ellipse id="Oval" fill="url(#linearGradient-2)" fill-rule="nonzero" cx="12" cy="12" rx="12" ry="12"></ellipse>
                            <polyline id="Shape" stroke="#FFFFFF" stroke-width="1.0564" stroke-linecap="round" stroke-linejoin="round" points="7 10 9.76009893 16 19 10.4292605"></polyline>
                        </g>
                        <ellipse id="Oval" fill="#FE7D90" fill-rule="nonzero" cx="4.69411604" cy="396.216569" rx="4.34227986" ry="4.34598039"></ellipse>
                        <ellipse id="Oval" fill="#FE7D90" fill-rule="nonzero" cx="81.655727" cy="231.65799" rx="2.65572696" ry="2.6579902"></ellipse>
                        <ellipse id="Oval" fill="#FE7D90" fill-rule="nonzero" cx="876.34228" cy="166.34598" rx="4.34227986" ry="4.34598039"></ellipse>
                        <ellipse id="Oval" fill="#FE7D90" fill-rule="nonzero" cx="432.344655" cy="4.34835784" rx="4.34465529" ry="4.34835784"></ellipse>
                        <g transform="translate(574.000000, 20.000000)" id="Shape" fill-rule="nonzero" fill="#FE7D90">
                            <path d="M6.95292833,12.9770343 C6.19041638,12.9770343 5.56805461,12.3541422 5.56805461,11.5886029 L5.56805461,1.81014706 C5.56805461,1.04698529 6.19041638,0.426470588 6.95292833,0.426470588 C7.7178157,0.426470588 8.33780205,1.04698529 8.33780205,1.81014706 L8.33780205,11.5886029 C8.33780205,12.3541422 7.7178157,12.9770343 6.95292833,12.9770343 Z"></path>
                            <path d="M11.8391809,8.0842402 L2.06667577,8.0842402 C1.30416382,8.0842402 0.681802048,7.46372549 0.681802048,6.69818627 C0.681802048,5.93264706 1.30416382,5.31213235 2.06667577,5.31213235 L11.8391809,5.31213235 C12.6040683,5.31213235 13.2240546,5.93264706 13.2240546,6.69818627 C13.2240546,7.46372549 12.6064437,8.0842402 11.8391809,8.0842402 Z"></path>
                        </g>
                        <g transform="translate(84.000000, 488.000000)" id="Shape" fill-rule="nonzero" fill="#FE7D90">
                            <path d="M6.56810922,12.5847549 C5.80322184,12.5847549 5.18323549,11.9642402 5.18323549,11.198701 L5.18323549,1.4202451 C5.18323549,0.654705882 5.80322184,0.0341911765 6.56810922,0.0341911765 C7.33062116,0.0341911765 7.95298294,0.654705882 7.95298294,1.4202451 L7.95298294,11.198701 C7.95298294,11.9642402 7.33062116,12.5847549 6.56810922,12.5847549 Z"></path>
                            <path d="M11.4543618,7.69433824 L1.68185666,7.69433824 C0.916969283,7.69433824 0.296982935,7.07144608 0.296982935,6.30828431 C0.296982935,5.5427451 0.916969283,4.92223039 1.68185666,4.92223039 L11.4543618,4.92223039 C12.2168737,4.92223039 12.8392355,5.5427451 12.8392355,6.30828431 C12.8392355,7.07382353 12.2168737,7.69433824 11.4543618,7.69433824 Z"></path>
                        </g>
                        <g transform="translate(845.000000, 463.000000)" id="Shape" fill-rule="nonzero" fill="#FE7D90">
                            <path d="M7.01938567,12.8881618 C6.25687372,12.8881618 5.63451195,12.2652696 5.63451195,11.5021078 L5.63451195,1.72365196 C5.63451195,0.958112745 6.25687372,0.337598039 7.01938567,0.337598039 C7.78427304,0.337598039 8.40425939,0.958112745 8.40425939,1.72365196 L8.40425939,11.5021078 C8.40425939,12.2652696 7.78427304,12.8881618 7.01938567,12.8881618 Z"></path>
                            <path d="M11.9080137,7.9977451 L2.13788396,7.9977451 C1.37299659,7.9977451 0.750634812,7.37485294 0.750634812,6.61169118 C0.750634812,5.84615196 1.37299659,5.22563725 2.13788396,5.22563725 L11.9080137,5.22563725 C12.672901,5.22563725 13.2928874,5.84615196 13.2928874,6.61169118 C13.2928874,7.37723039 12.672901,7.9977451 11.9080137,7.9977451 Z"></path>
                        </g>
                    </g>
                    <g transform="translate(724.000000, 98.000000)" fill-rule="nonzero" fill="#9DB2F1">
                        <path d="M17.1050909,16.50706 C12.6782909,16.50706 9.07861818,20.2309606 9.07861818,24.812894 C9.07861818,29.4121032 12.6782909,33.1360038 17.1050909,33.1360038 C21.5485818,33.1360038 25.1464,29.4121032 25.1464,24.812894 C25.1464,20.2309606 21.5467273,16.50706 17.1050909,16.50706 Z M17.1050909,28.5694267 C15.1021818,28.5694267 13.4757455,26.9013496 13.4757455,24.812894 C13.4757455,22.7417142 15.1021818,21.0582808 17.1050909,21.0582808 C19.108,21.0582808 20.7344364,22.7417142 20.7344364,24.812894 C20.7344364,26.9013496 19.108,28.5694267 17.1050909,28.5694267 Z" id="Shape"></path>
                        <path d="M17.1050909,7.66951439 C7.96403636,7.66951439 0.540290909,15.3534186 0.540290909,24.812894 C0.540290909,34.2896452 7.96403636,41.9581931 17.1050909,41.9581931 C26.2609818,41.9581931 33.6680364,34.2896452 33.6680364,24.812894 C33.6661818,15.3534186 26.2591273,7.66951439 17.1050909,7.66951439 Z M17.1050909,37.5470985 C10.3137455,37.5470985 4.81687273,31.8422363 4.81687273,24.812894 C4.81687273,17.7854712 10.3137455,12.0959653 17.1050909,12.0959653 C23.8964364,12.0959653 29.4081455,17.7854712 29.4081455,24.812894 C29.4062909,31.8422363 23.8964364,37.5470985 17.1050909,37.5470985 Z" id="Shape"></path>
                        <path d="M17.1050909,16.50706 C12.6782909,16.50706 9.07861818,20.2309606 9.07861818,24.812894 C9.07861818,29.4121032 12.6782909,33.1360038 17.1050909,33.1360038 C21.5485818,33.1360038 25.1464,29.4121032 25.1464,24.812894 C25.1464,20.2309606 21.5467273,16.50706 17.1050909,16.50706 Z M17.1050909,28.5694267 C15.1021818,28.5694267 13.4757455,26.9013496 13.4757455,24.812894 C13.4757455,22.7417142 15.1021818,21.0582808 17.1050909,21.0582808 C19.108,21.0582808 20.7344364,22.7417142 20.7344364,24.812894 C20.7344364,26.9013496 19.108,28.5694267 17.1050909,28.5694267 Z" id="Shape"></path>
                        <path d="M17.1050909,16.50706 C12.6782909,16.50706 9.07861818,20.2309606 9.07861818,24.812894 C9.07861818,29.4121032 12.6782909,33.1360038 17.1050909,33.1360038 C21.5485818,33.1360038 25.1464,29.4121032 25.1464,24.812894 C25.1464,20.2309606 21.5467273,16.50706 17.1050909,16.50706 Z M17.1050909,28.5694267 C15.1021818,28.5694267 13.4757455,26.9013496 13.4757455,24.812894 C13.4757455,22.7417142 15.1021818,21.0582808 17.1050909,21.0582808 C19.108,21.0582808 20.7344364,22.7417142 20.7344364,24.812894 C20.7344364,26.9013496 19.108,28.5694267 17.1050909,28.5694267 Z" id="Shape"></path>
                        <polygon id="Rectangle-path" points="34.7978097 7.79744474 16.3664181 26.9980308 14.2021902 24.920504 32.6335818 5.71991795"></polygon>
                        <rect id="Rectangle-path" transform="translate(17.188160, 24.790650) rotate(42.183117) translate(-17.188160, -24.790650) " x="16.0991634" y="24.2778282" width="2.17799265" height="1"></rect>
                        <rect id="Rectangle-path" transform="translate(17.653441, 24.691216) rotate(42.276387) translate(-17.653441, -24.691216) " x="17.1534384" y="23.7686069" width="1" height="1.84521715"></rect>
                        <path d="M38.36655,6.54311279 C39.0607553,6.54311279 39.5941772,7.15592757 39.5941772,7.87903774 C39.5941772,8.6030979 39.0597707,9.21496269 38.3629657,9.21496269 L33.4559625,9.21496269 C33.0941469,9.21496269 32.7627995,9.04619534 32.529158,8.75713177 C32.3134833,8.48979552 32.2072757,8.132223 32.2296931,7.77221173 L32.684791,1.60940162 C32.7358484,0.88597014 33.2841586,0.345458994 34.0235863,0.381337693 C34.7067498,0.452044307 35.1838566,1.10037779 35.1338958,1.8209803 L34.7894883,6.54311279 L38.36655,6.54311279 Z" id="Shape"></path>
                        <path d="M34.5460129,9.43331999 C35.2161662,9.43331999 35.7735443,9.96551288 35.7735443,10.6303406 C35.7735443,11.2953247 35.2125522,11.8273613 34.542429,11.8273613 L29.6324876,11.8273613 C29.2906241,11.8273613 28.9707615,11.6945167 28.7268483,11.4426088 C28.4983028,11.1940587 28.3796243,10.8624295 28.4104889,10.5313007 L28.8658524,5.38890903 C28.9274088,4.72839108 29.4710559,4.28073415 30.195537,4.29854128 C30.861328,4.35652941 31.3689933,4.92788454 31.3132374,5.59258043 L30.9741951,9.43331999 L34.5460129,9.43331999 Z" id="Shape"></path>
                    </g>
                    <g id="Group-3" transform="translate(26.000000, 140.000000)" fill-rule="nonzero">
                        <g id="Group" transform="translate(0.000000, 30.000000)" fill="#9FB7F1">
                            <path d="M60.7693023,0.0785714286 L55.7499535,3.83095238 C55.6882791,3.87619048 55.6028837,3.86428571 55.5554419,3.8 C55.5103721,3.74047619 55.5222326,3.65238095 55.5862791,3.60714286 L55.5910233,3.60238095 L60.7693023,0.0785714286 Z" id="Shape"></path>
                            <path d="M50.9203721,7.79761905 L46.2283721,11.9547619 C46.0813023,12.0857143 45.8559535,12.0714286 45.7231163,11.9214286 C45.5926512,11.7738095 45.6068837,11.55 45.7563256,11.4166667 C45.7586977,11.4142857 45.7634419,11.4095238 45.765814,11.4095238 L50.5882791,7.40714286 C50.6973953,7.31666667 50.8563256,7.33095238 50.9464651,7.44285714 C51.0366047,7.55238095 51.0223721,7.70714286 50.9203721,7.79761905 Z" id="Shape"></path>
                            <path d="M41.7237674,16.2666667 L37.3567442,20.7738095 C37.1385116,20.997619 36.7826977,21.002381 36.5597209,20.7857143 C36.3367442,20.5690476 36.332,20.2119048 36.5478605,19.9880952 C36.5526047,19.9833333 36.5597209,19.9785714 36.562093,19.9738095 L41.073814,15.6142857 C41.2564651,15.4380952 41.5458605,15.4428571 41.7213953,15.6261905 C41.8969302,15.8071429 41.8945581,16.0904762 41.7237674,16.2666667 Z" id="Shape"></path>
                            <path d="M33.1913488,25.3952381 L29.1635349,30.2071429 C28.9097209,30.5095238 28.4590233,30.547619 28.1577674,30.2952381 C27.8565116,30.0404762 27.816186,29.5880952 28.07,29.2857143 C28.0723721,29.2809524 28.0771163,29.2761905 28.0818605,29.2738095 L32.2045581,24.5452381 C32.4417674,24.2738095 32.8497674,24.2452381 33.1225581,24.4833333 C33.3882326,24.7214286 33.4190698,25.1261905 33.1913488,25.3952381 Z" id="Shape"></path>
                            <path d="M25.3776744,35.1357143 L21.7839535,40.2738095 C21.5182791,40.652381 20.9964186,40.7452381 20.6168837,40.4785714 C20.2397209,40.2119048 20.1472093,39.6880952 20.4128837,39.3095238 C20.4152558,39.3047619 20.42,39.297619 20.4223721,39.2952381 L24.118093,34.2285714 C24.3695349,33.8809524 24.858186,33.8071429 25.2021395,34.0595238 C25.5413488,34.3095238 25.622,34.7880952 25.3776744,35.1357143 Z" id="Shape"></path>
                            <path d="M18.482,45.5071429 L15.4006512,50.9761905 C15.1397209,51.4404762 14.5514419,51.6047619 14.0865116,51.3404762 C13.6215814,51.0761905 13.457907,50.4880952 13.7212093,50.0214286 C13.7235814,50.0190476 13.7306977,50.0095238 13.7330698,50.0047619 L16.9235349,44.597619 C17.1749767,44.1690476 17.7300465,44.0261905 18.1570233,44.2809524 C18.5792558,44.5357143 18.7192093,45.0809524 18.482,45.5071429 Z" id="Shape"></path>
                            <path d="M12.6608837,56.5047619 L10.1725581,62.2714286 C9.93772093,62.8166667 9.31148837,63.0642857 8.77065116,62.8285714 C8.22744186,62.5952381 7.97837209,61.9642857 8.2132093,61.4190476 C8.2155814,61.4166667 8.21795349,61.4095238 8.22032558,61.4047619 L10.7845581,55.6714286 C11.0170233,55.1547619 11.6242791,54.9238095 12.1390233,55.1547619 C12.6513953,55.3857143 12.8838605,55.9904762 12.6608837,56.5047619 Z" id="Shape"></path>
                            <path d="M8.05665116,68.047619 L6.26809302,74.0690476 C6.09255814,74.6595238 5.47581395,74.9952381 4.88753488,74.8190476 C4.30162791,74.6452381 3.96716279,74.0238095 4.14269767,73.4357143 L4.14506977,73.4261905 L5.97395349,67.4142857 C6.14711628,66.8380952 6.75674419,66.5119048 7.3307907,66.6880952 C7.90483721,66.8666667 8.22981395,67.4714286 8.05665116,68.047619 Z" id="Shape"></path>
                            <path d="M4.90651163,80.0547619 L3.92683721,86.2619048 C3.8272093,86.8952381 3.23655814,87.3214286 2.60795349,87.2238095 C1.97934884,87.1214286 1.55474419,86.5309524 1.65437209,85.9 L1.65437209,85.8928571 L2.67674419,79.6904762 C2.77874419,79.0714286 3.35990698,78.652381 3.97665116,78.7547619 C4.58627907,78.8595238 5.00376744,79.4404762 4.90651163,80.0547619 Z" id="Shape"></path>
                            <path d="M3.38837209,92.3666667 L3.26976744,98.6428571 C3.25553488,99.302381 2.71469767,99.8285714 2.05288372,99.8166667 C1.39581395,99.8047619 0.871581395,99.2595238 0.885813953,98.597619 L0.885813953,98.5904762 L1.04474419,92.3119048 C1.06134884,91.6666667 1.59744186,91.152381 2.24502326,91.1690476 C2.89023256,91.1857143 3.39786047,91.7214286 3.38837209,92.3666667 Z" id="Shape"></path>
                            <path d="M3.57576744,104.752381 L4.31586047,110.995238 C4.39651163,111.67381 3.91260465,112.290476 3.23655814,112.371429 C2.56051163,112.452381 1.94851163,111.966667 1.86786047,111.288095 L1.86548837,111.280952 L1.16809302,105.030952 C1.09455814,104.364286 1.57134884,103.761905 2.23790698,103.688095 C2.89972093,103.614286 3.49748837,104.090476 3.57576744,104.752381 Z" id="Shape"></path>
                            <path d="M5.43311628,117.014286 L6.94888372,123.114286 C7.11255814,123.778571 6.70930233,124.45 6.05223256,124.614286 C5.39516279,124.778571 4.72860465,124.378571 4.56018605,123.721429 L3.00883721,117.62619 C2.83567442,116.957143 3.24130233,116.271429 3.91023256,116.097619 C4.57916279,115.92381 5.25995349,116.330952 5.43311628,117.002381 L5.43311628,117.014286 Z" id="Shape"></path>
                            <path d="M8.82046512,128.942857 L11.1593488,134.77381 C11.4036744,135.388095 11.1095349,136.080952 10.499907,136.32619 C9.89265116,136.57381 9.20237209,136.278571 8.95567442,135.67381 L6.57883721,129.857143 C6.32502326,129.235714 6.62153488,128.52381 7.23827907,128.271429 C7.85502326,128.019048 8.56427907,128.314286 8.81809302,128.933333 L8.82046512,128.942857 Z" id="Shape"></path>
                            <path d="M13.8326977,140.27619 L16.9757209,145.716667 C17.2935814,146.264286 17.1085581,146.969048 16.5582326,147.288095 C16.0126512,147.607143 15.3152558,147.42381 14.9926512,146.87619 L11.8140465,141.459524 C11.4843256,140.902381 11.6693488,140.183333 12.2267907,139.852381 C12.7818605,139.52381 13.5006047,139.709524 13.8279535,140.269048 L13.8326977,140.27619 Z" id="Shape"></path>
                            <path d="M20.4057674,150.785714 L24.2746512,155.730952 C24.651814,156.211905 24.5687907,156.909524 24.0872558,157.288095 C23.6104651,157.666667 22.917814,157.583333 22.5406512,157.107143 L18.636186,152.188095 C18.2495349,151.7 18.330186,150.988095 18.8164651,150.6 C19.3027442,150.209524 20.012,150.290476 20.3986512,150.778571 L20.4057674,150.785714 Z" id="Shape"></path>
                            <path d="M28.3688837,160.3 L32.8497674,164.695238 C33.272,165.109524 33.2791163,165.783333 32.8663721,166.207143 C32.4583721,166.62619 31.7870698,166.635714 31.3672093,166.230952 L26.8602326,161.864286 C26.4261395,161.445238 26.4142791,160.754762 26.8317674,160.32381 C27.2468837,159.890476 27.9347907,159.878571 28.3641395,160.295238 L28.3688837,160.3 Z" id="Shape"></path>
                            <path d="M37.4753488,168.752381 L42.4140465,172.62381 C42.8291628,172.947619 42.9026977,173.55 42.5777209,173.961905 C42.2574884,174.37381 41.6692093,174.45 41.254093,174.138095 L36.2394884,170.369048 C35.7911628,170.030952 35.6986512,169.395238 36.0354884,168.942857 C36.3723256,168.490476 37.0080465,168.397619 37.4587442,168.738095 C37.4634884,168.740476 37.4706047,168.75 37.4753488,168.752381 Z" id="Shape"></path>
                            <path d="M47.4737209,176.164286 L52.7872093,179.495238 C53.1738605,179.738095 53.2924651,180.247619 53.0505116,180.638095 C52.8109302,181.019048 52.3104186,181.140476 51.9237674,180.907143 L46.5438605,177.683333 C46.1216279,177.433333 45.9840465,176.883333 46.2354884,176.459524 C46.4845581,176.035714 47.0325116,175.897619 47.4547442,176.15 C47.4618605,176.157143 47.4689767,176.161905 47.4737209,176.164286 Z" id="Shape"></path>
                            <path d="M58.1884651,182.535714 L63.7866047,185.361905 C64.1329302,185.535714 64.2705116,185.957143 64.0973488,186.304762 C63.9265581,186.647619 63.513814,186.785714 63.1698605,186.621429 L57.5147907,183.909524 C57.1352558,183.728571 56.9715814,183.269048 57.1566047,182.888095 C57.3368837,182.507143 57.7946977,182.345238 58.1742326,182.528571 C58.1766047,182.528571 58.1837209,182.533333 58.1884651,182.535714 Z" id="Shape"></path>
                            <path d="M69.4487907,187.92381 L75.2509302,190.304762 C75.5284651,190.421429 75.6613023,190.738095 75.5474419,191.014286 C75.4359535,191.285714 75.1299535,191.419048 74.8571628,191.316667 L68.9838605,189.114286 C68.6541395,188.990476 68.4857209,188.621429 68.6090698,188.290476 C68.7347907,187.959524 69.100093,187.792857 69.429814,187.916667 C69.4369302,187.919048 69.4440465,187.921429 69.4487907,187.92381 Z" id="Shape"></path>
                            <path d="M81.1076279,192.454762 L87.0734419,194.388095 C87.2489767,194.445238 87.3438605,194.635714 87.2893023,194.811905 C87.2347442,194.983333 87.0497209,195.080952 86.8789302,195.030952 L80.853814,193.295238 C80.6213488,193.228571 80.4885116,192.985714 80.5549302,192.752381 C80.6213488,192.516667 80.8633023,192.383333 81.0981395,192.45 C81.0981395,192.452381 81.1052558,192.452381 81.1076279,192.454762 Z" id="Shape"></path>
                            <path d="M93.0866977,196.083333 L99.1806047,197.559524 C99.2351628,197.57381 99.2707442,197.630952 99.2565116,197.688095 C99.2446512,197.742857 99.190093,197.77619 99.1331628,197.766667 L92.9846977,196.535714 C92.8589767,196.509524 92.7783256,196.388095 92.8020465,196.264286 C92.8281395,196.138095 92.9491163,196.057143 93.0748372,196.080952 C93.0795814,196.083333 93.0819535,196.083333 93.0866977,196.083333 Z" id="Shape"></path>
                        </g>
                        <g id="Group" transform="translate(31.000000, 0.000000)">
                            <path d="M24.3585185,13.1795 C24.4604444,12.9334444 11.7481481,20.8765 11.7481481,20.8765 L15.0524444,42.4553333 L21.2888889,26.3112222 L37.7131852,23.1555 L61.1182222,0.972277778 L24.3585185,13.1795 Z" id="Shape" fill="#9495F2"></path>
                            <polygon id="Shape" fill="#9495F2" points="61.1158519 0.969888889 15.0500741 42.4529444 21 26"></polygon>
                            <polygon id="Shape" fill="#9FB7F1" points="61.1158519 0.969888889 0.17362963 14.0108333 11.7481481 20.8741111 61.1158519 0.969888889 21.2865185 26.3112222 35.4997973 35.1559077 40.9724444 38.5614444"></polygon>
                        </g>
                    </g>
                    <g transform="translate(762.000000, 219.000000)" fill-rule="nonzero" fill="#9DB2F1">
                        <path d="M46,27.0148608 C46,29.1968077 45.6989477,31.3020915 45.1243905,33.2992609 C42.3893404,42.9430728 33.5112499,50 22.994097,50 C15.1214817,50 8.17760287,46.0390785 4.02977158,40.0023589 C1.49148772,36.3048435 0,31.8367668 0,27.0148608 C0,14.3300833 10.2928394,4.04348168 22.994097,4.04348168 L22.994097,27.0148608 L42.8359997,15.4249882 C44.8351442,18.8355087 46,22.7807045 46,27.0148608 Z M44.917786,11.3874037 L25.0817863,22.9753106 L25.0817863,3.55271368e-15 C33.5486355,3.55271368e-15 40.9253999,4.5840541 44.917786,11.3874037 Z" id="Combined-Shape"></path>
                        <path d="M46,26.6713956 C46,28.8686902 45.699025,30.9887826 45.1246151,33 L23,26.6713956 L42.8368115,15 C44.835443,18.4345101 46,22.4074563 46,26.6713956 Z" id="Shape" opacity="0.3"></path>
                        <path d="M23,4 L23,26.9976494 L4.03080609,40 C1.49187061,36.2982562 0,31.8250697 0,26.9976494 C0.00196816704,14.2983655 10.2974499,4 23,4 Z" id="Shape" opacity="0.2"></path>
                    </g>
                </g>
            </g>
        </g>
    </g>
</svg>