<?xml version="1.0" encoding="iso-8859-1"?>
<!-- Generator: Adobe Illustrator 19.0.0, SVG Export Plug-In . SVG Version: 6.00 Build 0)  -->
<svg version="1.1" id="Layer_1" xmlns="http://www.w3.org/2000/svg" xmlns:xlink="http://www.w3.org/1999/xlink" x="0px" y="0px"
	 viewBox="0 0 512.001 512.001" style="enable-background:new 0 0 512.001 512.001;" xml:space="preserve">
<circle style="fill:#FAB617;" cx="285.33" cy="56.001" r="46"/>
<circle style="fill:#003582;" cx="82.999" cy="456.001" r="46"/>
<circle style="fill:#50C405;" cx="437.03" cy="410.031" r="37.968"/>
<circle style="fill:#CC6BC2;" cx="69" cy="224.131" r="32"/>
<circle style="fill:#0092E0;" cx="281.55" cy="256.131" r="61.13"/>
<path d="M281.555,329.529c-0.011,0-0.021,0-0.03,0h-0.165c-5.523-0.017-9.987-4.507-9.971-10.03c0.017-5.513,4.49-9.97,9.999-9.97
	c0.011,0,0.021,0,0.03,0h0.165c5.523,0.017,9.987,4.507,9.971,10.03C291.537,325.071,287.063,329.529,281.555,329.529z"/>
<path d="M237.226,66.001c-5.522,0-10-4.477-10-10v-0.13c0-5.523,4.478-10,10-10s10,4.477,10,10v0.13
	C247.226,61.524,242.748,66.001,237.226,66.001z"/>
<path d="M37,466.001c-5.522,0-10-4.477-10-10v-0.131c0-5.523,4.478-10,10-10c5.522,0,10,4.477,10,10v0.131
	C47,461.524,42.522,466.001,37,466.001z"/>
<circle style="fill:#E23225;" cx="411.33" cy="180.071" r="32"/>
<path d="M437.031,362.064c0,0-0.001,0-0.002,0c-9.409,0-18.399,2.701-26.103,7.719l-70.637-70.635
	c8.44-11.91,13.181-26.337,13.181-41.619c0-10.003-2.055-19.533-5.757-28.198l33.609-19.885c0.105,0.107,0.203,0.218,0.309,0.324
	c7.934,7.933,18.479,12.301,29.697,12.301c23.158,0,41.999-18.841,42-41.999c-0.001-23.158-18.843-41.998-42-41.998c0,0,0,0-0.001,0
	c-11.217,0-21.764,4.369-29.696,12.3c-7.934,7.933-12.303,18.48-12.303,29.698c0,4.186,0.61,8.277,1.784,12.175l-33.745,19.965
	c-10.908-13.43-26.545-22.864-44.354-25.747l0.189-75.373c26.133-4.721,46.023-27.62,46.023-55.092c0-30.878-25.121-56-56-56
	c-17.515,0-33.695,7.968-44.393,21.86c-3.37,4.376-2.554,10.655,1.822,14.024c4.375,3.37,10.655,2.554,14.023-1.822
	c6.884-8.936,17.289-14.061,28.549-14.061c19.851,0,36,16.149,36,36s-16.149,36-36,36c-11.541,0-22.101-5.332-28.972-14.627
	c-3.284-4.441-9.544-5.38-13.986-2.097c-4.441,3.283-5.38,9.544-2.098,13.986c8.511,11.513,21.154,19.269,35.033,21.819
	l-0.188,74.961c-28.263,3.323-51.563,23.068-60.07,49.415l-102.132-15.21c-1.967-21.345-19.965-38.117-41.813-38.116
	c0,0,0,0-0.001,0c-11.217,0-21.763,4.369-29.696,12.3C31.369,202.365,27,212.912,27,224.13l0,0
	c0.001,23.158,18.843,41.998,42,41.998c17.533,0,32.583-10.804,38.865-26.099l101.666,15.141c-0.025,0.785-0.06,1.568-0.06,2.359
	c0,15.945,5.249,31.077,14.509,43.35L114.868,409.991c-9.053-6.29-20.034-9.99-31.868-9.99c-17.516,0-33.697,7.968-44.394,21.861
	c-3.369,4.376-2.553,10.655,1.823,14.024c4.375,3.37,10.655,2.554,14.024-1.823c6.881-8.937,17.286-14.062,28.547-14.062
	c19.851,0,36,16.149,36,36s-16.149,36-36,36c-11.541,0-22.101-5.332-28.972-14.627c-3.284-4.441-9.544-5.379-13.986-2.097
	c-4.441,3.283-5.38,9.544-2.098,13.986C48.47,503.501,65.313,512.001,83,512.001c30.879,0,56-25.122,56-56
	c0-11.834-3.7-22.815-9.989-31.868l109.12-109.12c2.926,2.205,6.037,4.212,9.33,5.979c4.864,2.612,10.928,0.785,13.54-4.081
	s0.785-10.928-4.081-13.54c-16.931-9.089-27.448-26.654-27.448-45.842c0-28.673,23.327-52,52-52s52,23.327,52,52
	c0,19.797-11.007,37.617-28.725,46.503c-4.937,2.476-6.932,8.485-4.455,13.422c1.754,3.498,5.282,5.519,8.946,5.519
	c1.507,0,3.037-0.342,4.476-1.063c4.624-2.319,8.917-5.079,12.84-8.213l70.23,70.229c-5.02,7.704-7.721,16.696-7.721,26.106l0,0
	c0.001,26.449,21.52,47.966,47.969,47.966S485,436.48,485.001,410.031C484.999,383.581,463.479,362.063,437.031,362.064z
	 M395.773,164.519c4.155-4.155,9.68-6.443,15.556-6.443c12.13,0,21.999,9.868,22,21.998c-0.001,12.13-9.87,21.998-22,21.999
	c-5.876,0-11.4-2.288-15.556-6.443s-6.444-9.679-6.444-15.555S391.617,168.674,395.773,164.519z M69,246.128
	c-12.13,0-21.999-9.868-22-21.998c0-5.875,2.289-11.399,6.444-15.555c4.156-4.155,9.68-6.443,15.556-6.443
	c12.13,0,21.999,9.868,22,21.998C90.999,236.259,81.13,246.127,69,246.128z M437.031,437.997c-15.422,0-27.968-12.545-27.969-27.967
	c0-7.47,2.909-14.492,8.192-19.775c5.283-5.282,12.307-8.191,19.776-8.191c15.422,0,27.968,12.545,27.969,27.966
	C464.999,425.451,452.452,437.997,437.031,437.997z"/>
<g>
</g>
<g>
</g>
<g>
</g>
<g>
</g>
<g>
</g>
<g>
</g>
<g>
</g>
<g>
</g>
<g>
</g>
<g>
</g>
<g>
</g>
<g>
</g>
<g>
</g>
<g>
</g>
<g>
</g>
</svg>
